PathFileType  4	(X/Y/Z) C:\Users\antoi\Documents\MyRepositories\mobilecap\ResultsAnalysis
DataRate	CameraRate	NumFrames	NumMarkers	Units	OrigDataRate	OrigDataStartFrame	OrigNumFrames
100.0	100.0	6	51	mm	100.0	1059	1411
Frame#	Time	r_knee			r_shank_antsup			r_ankle			r_calc			r_5meta			r_toe			L_knee			L_shank_antsup			L_ankle			L_calc			L_5meta			L_toe			r_sh2			r_sh3			r_sh4			L_sh2			L_sh3			r_thigh1			r_thigh2			r_thigh3			r_thigh4			r_thigh5			L_thigh1			L_thigh2			L_thigh3			L_thigh4			r.ASIS			r.PSIS			L.ASIS			L.PSIS			C7			R_Shoulder			L_Shoulder			R_Sternum			L_Sternum			R_humerus			R_elbow_med			R_elbow_lat			R_forearm			R_wrist_radius			R_wrist_ulna			L_humerus			L_elbow_med			L_elbow_lat			L_forearm			L_wrist_radius			L_wrist_ulna			R_HJC			L_HJC			R_HJC_reg			L_HJC_reg			
		X1	Y1	Z1	X2	Y2	Z2	X3	Y3	Z3	X4	Y4	Z4	X5	Y5	Z5	X6	Y6	Z6	X7	Y7	Z7	X8	Y8	Z8	X9	Y9	Z9	X10	Y10	Z10	X11	Y11	Z11	X12	Y12	Z12	X13	Y13	Z13	X14	Y14	Z14	X15	Y15	Z15	X16	Y16	Z16	X17	Y17	Z17	X18	Y18	Z18	X19	Y19	Z19	X20	Y20	Z20	X21	Y21	Z21	X22	Y22	Z22	X23	Y23	Z23	X24	Y24	Z24	X25	Y25	Z25	X26	Y26	Z26	X27	Y27	Z27	X28	Y28	Z28	X29	Y29	Z29	X30	Y30	Z30	X31	Y31	Z31	X32	Y32	Z32	X33	Y33	Z33	X34	Y34	Z34	X35	Y35	Z35	X36	Y36	Z36	X37	Y37	Z37	X38	Y38	Z38	X39	Y39	Z39	X40	Y40	Z40	X41	Y41	Z41	X42	Y42	Z42	X43	Y43	Z43	X44	Y44	Z44	X45	Y45	Z45	X46	Y46	Z46	X47	Y47	Z47	X48	Y48	Z48	X49	Y49	Z49	X50	Y50	Z50	X51	Y51	Z51	

1059	10.58000000	-232.05751	450.93288	-415.35583	-207.04253	387.81572	-384.11482	-270.59706	93.50576	-409.56969	-334.05440	54.14121	-450.38580	-171.56718	53.05598	-369.44291	-125.45236	78.23567	-419.90414	-231.73895	444.73862	-819.62714	-181.62847	381.94130	-825.86110	-259.87680	91.42971	-787.84071	-325.51713	55.24574	-735.66077	-168.13675	48.55410	-814.40425	-119.86452	82.95346	-768.03938	-223.40861	275.87831	-375.77164	-278.38548	395.64761	-403.49048	-302.46585	281.63099	-398.55246	-268.21600	398.39579	-842.68459	-278.56374	276.77130	-837.51630	-509.07791	571.72328	-470.67887	-399.76705	560.37400	-444.26195	-390.35828	517.55491	-395.73253	-533.76860	493.53180	-392.28385	-419.45112	468.47514	-389.37519	-497.41552	559.41697	-787.56264	-361.23052	546.00064	-801.21384	-516.69977	446.94461	-815.42164	-374.73261	441.48092	-827.27012	-527.81499	579.80134	-475.92466	-703.74698	602.00502	-558.10317	-519.65987	571.88488	-736.28532	-704.03105	596.47460	-665.18057	-459.96245	1019.75731	-591.13174	-398.21768	954.98612	-449.44606	-366.98110	965.94991	-737.79857	-363.64871	905.64534	-570.58093	-359.86077	906.07435	-610.13709	-328.36930	767.78200	-332.52754	-317.41390	645.51874	-363.83486	-306.28430	691.85720	-298.12442	-233.15600	760.97051	-356.09827	-167.75803	819.42413	-423.41942	-136.42926	787.28756	-420.43348	-308.15585	859.66816	-786.37430	-294.12620	637.08050	-790.09190	-272.07606	663.97383	-856.42669	-195.54386	732.76286	-806.62544	-130.39600	794.65230	-730.76722	-104.98110	768.03097	-728.23990	-593.96973	506.01323	-505.98647	-584.57896	502.60120	-706.02952	-589.65770	500.63202	-508.62074	-590.11287	491.76049	-680.39231	
1060	10.59000000	-233.45025	451.56373	-414.87188	-208.46370	388.08484	-383.45213	-270.82244	93.67037	-409.24671	-334.17061	54.10281	-450.40253	-171.58527	53.08167	-369.43683	-125.53054	78.34303	-419.92827	-234.01032	445.18454	-819.98418	-183.66229	382.64032	-826.41593	-260.14782	91.57140	-787.87354	-325.69721	55.24451	-735.52840	-168.22832	48.68528	-814.10767	-120.04565	83.38021	-767.92641	-224.40321	276.35131	-374.94687	-279.70794	395.78208	-402.91189	-303.19471	281.51453	-398.30201	-270.41486	398.57757	-842.96549	-279.96944	276.86767	-837.81530	-510.59259	572.67755	-470.22898	-401.43291	560.91605	-444.65393	-392.14600	518.50090	-395.21049	-535.59890	494.39645	-392.31597	-421.23352	469.50979	-388.60091	-500.12159	559.08539	-786.90200	-363.82118	546.18318	-801.13387	-519.05311	446.83554	-815.67553	-377.08744	441.61827	-827.36979	-530.84101	580.19308	-476.80960	-707.54515	600.10274	-558.28087	-523.56798	571.81454	-736.88874	-708.29914	593.80024	-665.31253	-469.37866	1020.96850	-590.94149	-408.71721	956.18197	-448.36327	-377.60410	968.09663	-739.31108	-371.80173	907.62965	-570.55675	-367.70513	909.02240	-609.45550	-340.20897	766.92181	-332.66759	-329.53847	644.76523	-364.98888	-318.38719	690.64520	-298.87002	-245.12546	760.11640	-356.17934	-179.39232	818.89523	-422.97430	-148.20540	786.54945	-420.18770	-319.75005	860.50006	-787.93398	-306.76670	637.92596	-789.11021	-285.47372	663.74735	-856.04458	-208.56835	733.22611	-807.98834	-142.50053	796.18818	-734.27249	-116.98043	769.69875	-731.36455	-596.21764	505.53543	-506.27647	-587.54105	501.65974	-706.34330	-591.94870	500.94742	-508.60410	-593.15841	490.84577	-680.10909	
1061	10.60000000	-235.12766	452.04689	-414.43741	-210.00263	388.53061	-382.71879	-271.17541	93.88405	-408.86362	-334.34723	54.00751	-450.52400	-171.67977	53.16666	-369.39578	-125.73613	78.58464	-419.85687	-236.38507	445.59150	-820.29144	-185.78407	383.30795	-826.83413	-260.47964	91.65992	-787.84766	-325.86448	55.17873	-735.44451	-168.41054	48.82432	-813.76728	-120.32488	83.98209	-767.91914	-225.68225	276.91657	-374.24207	-281.42489	396.22889	-402.17911	-304.29626	281.81072	-397.89287	-272.69817	398.78703	-843.21757	-281.58624	276.83406	-837.72778	-511.99232	574.08362	-470.10635	-402.81593	561.86499	-445.33460	-393.88531	519.76164	-394.75502	-537.38837	495.53505	-392.81587	-423.04028	470.78269	-388.03658	-502.60521	558.76710	-785.83991	-366.32193	546.37815	-800.97632	-521.46331	447.12876	-815.77223	-379.58056	442.00264	-827.76679	-533.80987	581.57264	-477.49563	-711.16246	598.82219	-558.40699	-527.37229	572.46798	-737.51262	-712.33811	591.84490	-665.36217	-478.36619	1022.80876	-590.89782	-418.90799	957.80704	-447.08840	-387.86483	970.35623	-740.69293	-379.53087	910.26791	-570.53782	-375.85429	912.22591	-608.59959	-352.44803	765.98644	-333.24633	-342.35192	644.08503	-366.14183	-331.05135	689.48257	-299.99292	-257.42094	759.16538	-356.26709	-191.11318	818.22614	-422.35390	-160.07818	785.71499	-419.65284	-331.33462	861.77311	-789.86928	-320.26696	638.38396	-788.42889	-299.43109	663.62811	-855.53522	-221.91714	733.81619	-809.91493	-154.72091	797.51004	-737.75989	-129.20669	771.13284	-734.90403	-598.26864	505.93268	-506.43684	-590.27597	501.44817	-706.51920	-593.99139	501.81656	-508.51281	-595.87525	490.63590	-679.90761	
1062	10.61000000	-236.95653	452.79748	-413.55298	-211.67079	389.20383	-381.81114	-271.58702	94.03766	-408.63876	-334.48869	53.95014	-450.54817	-171.77298	53.15633	-369.49194	-125.98300	78.81859	-419.68461	-238.79450	445.97016	-820.47346	-188.01221	383.93244	-827.21905	-260.77143	91.67047	-787.77401	-326.00871	55.09823	-735.43732	-168.60177	48.94964	-813.54206	-120.65917	84.52339	-768.05994	-227.06072	277.34938	-373.65026	-283.18878	396.59271	-401.53975	-305.66969	282.19800	-397.38203	-275.03135	398.97783	-843.40300	-283.30383	276.77087	-837.36565	-513.33896	575.50441	-470.30256	-404.25117	562.95934	-445.61361	-395.72667	521.09321	-394.38518	-539.06801	496.75428	-393.50846	-424.88097	472.03188	-387.66559	-504.96768	558.63340	-785.05958	-368.74190	546.68037	-801.08874	-523.83054	447.63221	-815.93464	-382.02441	442.67975	-828.60078	-536.75353	583.37106	-478.47524	-714.62544	597.84103	-558.43847	-531.04400	573.65593	-738.12535	-716.11001	590.60597	-665.27775	-487.00464	1025.07456	-590.97329	-429.06223	959.77226	-445.88301	-397.74657	972.81658	-742.04615	-387.31911	913.30300	-570.81489	-384.62254	914.73572	-609.41256	-364.99573	765.08721	-334.07538	-355.57737	643.67038	-367.79879	-344.29159	688.50591	-301.24390	-269.99880	758.14253	-356.38558	-202.94546	817.46501	-421.61059	-172.07059	784.87710	-418.85648	-342.94325	863.38998	-792.16158	-333.93556	639.18055	-787.67628	-313.92558	663.67080	-854.95014	-235.50873	734.34404	-811.96283	-167.18686	798.68964	-740.88723	-141.57249	772.36228	-738.81274	-600.16700	506.73324	-506.70727	-592.91355	501.83336	-706.80808	-595.80424	502.71356	-509.02161	-598.18176	491.12784	-680.14441	
1063	10.62000000	-238.59501	454.00334	-412.29310	-213.53114	389.81951	-380.89836	-272.02125	94.15540	-408.61654	-334.58753	53.90012	-450.44200	-171.81425	53.05926	-369.71983	-126.18426	79.01952	-419.52125	-241.11328	446.44465	-820.74138	-190.27206	384.52823	-827.78115	-261.00245	91.63638	-787.69627	-326.12886	55.04176	-735.51347	-168.74908	49.11035	-813.59259	-120.96074	84.81240	-768.16383	-228.57454	277.64580	-372.93672	-284.75449	396.74052	-401.22401	-307.04293	282.37510	-396.98364	-277.36729	399.14355	-843.50050	-285.00381	276.93090	-837.36896	-514.79022	576.48491	-470.74943	-405.98584	563.87578	-445.51079	-397.72895	522.21483	-394.04143	-540.74737	497.81002	-394.11883	-426.77636	473.08834	-387.25008	-507.41234	558.92459	-784.93241	-371.16331	547.16587	-801.57210	-526.18013	448.11344	-816.23629	-384.39092	443.31875	-829.26016	-539.76139	585.20238	-479.58780	-717.92685	596.94017	-558.43802	-534.60957	575.22559	-738.62463	-719.64868	589.71011	-665.22026	-495.62185	1027.48201	-591.01263	-438.95068	961.69623	-445.07168	-407.38669	975.45282	-743.25622	-395.19419	916.60550	-571.20837	-392.97868	917.24394	-611.25520	-377.63193	764.53408	-334.79952	-369.10530	643.50619	-369.84623	-357.89476	687.61130	-302.57043	-282.74436	757.19533	-356.58202	-214.79280	816.63882	-420.77930	-184.16299	783.88983	-418.10572	-354.57465	865.02299	-794.36096	-347.41792	640.84837	-786.66254	-328.80866	663.92269	-854.48168	-249.33850	734.71794	-813.82444	-179.89349	799.68993	-744.16481	-154.09885	773.30375	-742.68105	-602.01139	507.60730	-507.10092	-595.41108	502.59082	-707.22168	-597.54049	503.60592	-509.86091	-600.29327	492.04930	-680.57212	
1064	10.63000000	-240.25702	454.94355	-411.26367	-215.52597	390.27046	-380.15137	-272.42322	94.28254	-408.61798	-334.68823	53.85666	-450.37162	-171.86526	53.07611	-369.84857	-126.33074	79.25282	-419.45214	-243.26568	446.98218	-821.26038	-192.43031	385.06332	-828.43496	-261.21841	91.64432	-787.69146	-326.24189	54.99866	-735.61202	-168.83013	49.53075	-814.18864	-121.19013	84.91809	-768.13501	-230.09339	277.96310	-372.23706	-286.41624	396.75051	-401.11886	-308.35336	282.29310	-396.89720	-279.67078	399.18722	-843.43746	-286.64346	277.20161	-837.85224	-516.46137	576.79851	-471.56871	-407.99327	564.56630	-445.38341	-399.85686	523.08774	-393.72489	-542.73011	498.53782	-394.40508	-428.80471	473.94741	-386.72376	-509.93461	559.44512	-785.22348	-373.54860	547.66658	-802.14068	-528.48122	448.37618	-816.35905	-386.71051	443.69768	-829.53431	-542.81978	586.95397	-480.43626	-721.10692	595.99515	-558.38908	-538.09643	577.10028	-738.92045	-723.02265	588.75749	-665.36329	-504.35617	1029.76769	-590.94082	-448.40136	963.01804	-445.04191	-416.93498	978.04016	-744.15519	-402.85144	920.21981	-571.31356	-400.63261	920.49547	-612.15356	-390.28057	764.30198	-335.42490	-382.91459	643.45996	-371.82001	-371.59087	686.63154	-304.17943	-295.41914	756.25744	-356.84269	-226.52900	815.75323	-419.89296	-196.28530	782.59530	-417.58741	-366.10718	866.53193	-796.11117	-361.31383	642.70419	-785.96682	-343.91148	664.36720	-854.21950	-263.36483	735.00404	-815.52598	-192.61239	800.53490	-747.99518	-166.81301	773.96190	-746.35782	-603.82598	508.42813	-507.49156	-597.66153	503.54098	-707.62948	-599.30322	504.62956	-510.48545	-602.35302	493.10577	-680.82030	
